<!-- icon666.com - MILLIONS vector ICONS FREE --><svg id="Layer_1" enable-background="new 0 0 53 53" viewBox="0 0 53 53" xmlns="http://www.w3.org/2000/svg"><g><path d="m47 34.7c.2-3 .4-25.6.4-25.7h.5c1.4-.1 2.7-1 3.1-2.3.5-1.3.1-2.8-1-3.7-.5-.4-1.1-.7-1.8-.8-.2 0-.3 0-.5 0h-.4-.8l-6.4.2c-4.1.1-8.4.2-12.6.4 4.3.2 8.5.3 12.8.5l6.4.2h.8.4.3c.4.1.8.2 1 .5.6.5.8 1.4.5 2.1s-1 1.2-1.7 1.2h-1c-.1 0-.2-.1-.3-.1-34.9 0-42 .2-41.5.2-.1 0-.2 0-.3 0-.4 0-.7-.2-1-.4-.6-.5-.8-1.3-.6-2s.9-1.3 1.7-1.3c.1 0 10.2-.3 9.6-.2 4.3-.2 8.5-.3 12.8-.5-4.2-.4-8.4-.5-12.7-.7-.1 0-10.3-.2-9.6-.2-1.4 0-2.7.9-3.1 2.2-.6 1.3-.2 2.9.8 3.8.5.5 1.2.8 1.9.9h.5.4l.1 11 .2 11.8c0 1 0 1.9.1 3s.6 2.1 1.3 3c.7.8 1.7 1.4 2.7 1.6.5.1 1.1.2 1.6.1 4.6-.1 9-.2 12.5-.4 0 1 0 2 .1 2.9l.1 3.7h-1.8c-.8 0-1.8.2-2.5.6-.8.4-1.4 1-1.9 1.8-.4.7-.6 1.6-.6 2.5 0 .2.1.3.3.3 2.9-.1 5.8-.2 8.7-.3-2.8-.1-5.6-.2-8.4-.3.1-.6.3-1.3.6-1.8.4-.6 1-1.1 1.6-1.4.7-.3 1.3-.4 2.1-.4l2.4.1c.3 0 .5-.2.6-.5 0-.3.1-4.5.1-4.3 0-1.4.1-2.8 0-4.3-.2-3-1.3-5.8-3-8.2-1.7-2.2-2.9-4.6-3.7-7.3-.8-2.3-1-4.8-.8-7.2h17.1c.2 2.4-.1 4.8-.7 7.2-.7 2.6-2 5-3.7 7.3-1.7 2.4-2.8 5.3-3.1 8.2-.1 1.5 0 2.9 0 4.3 0 .2.1 4.5.1 4.3 0 .3.3.5.6.5l2.4-.1c.8-.1 1.5 0 2.1.4 1.2.6 2.1 1.8 2.3 3.2-2.9.1-5.8.2-8.6.3 3 .1 6 .2 9 .3.2 0 .3-.1.3-.3.1-1.7-.9-3.5-2.5-4.3-.8-.4-1.7-.6-2.5-.6h-1.8l.1-3.7c0-1 0-2 .1-2.9 3.5.1 7.6.2 12.5.4 2.9.1 5.1-2.2 5.3-4.8zm-27.9-7.1c-.9-.3-1.8-.7-2.6-1.1-1.2-.7-2.2-1.5-3-2.5-1.5-1.8-2.5-3.9-2.8-6.2.3 0 .6 0 .9-.1.6 0 1.2-.1 1.8-.2.9-.1 1.8-.2 2.7-.4.1 1.9.4 3.8.9 5.6.5 1.7 1.2 3.4 2.1 4.9zm17-4.9c.6-1.8.9-3.7.9-5.6 1.9.3 3.4.5 5.3.6-.5 3.6-2.6 6.8-5.9 8.7-.8.5-1.7.9-2.6 1.2 1-1.5 1.8-3.2 2.3-4.9zm5.4 15.9c-4.6.1-9 .2-12.5.4 0-.4 0-.8.1-1.2.3-2.7 1.4-5.2 3-7.4.6-.7 1.1-1.5 1.6-2.4 2.6.1 5.3-.9 7.3-2.8 1.1-1 2-2.4 2.6-3.8s.8-3 .7-4.5v-.1c0-.4-.4-.8-.9-.8-2.2.1-4.1.3-6.3.7 0-1 0-1.9-.1-2.9-.1-.5-.5-.9-1-.9-8.5 0-13.9 0-18.9 0-.5 0-.9.4-1 .9-.1 1.1-.1 2-.1 3-.9-.2-1.8-.3-2.6-.4-.6-.1-1.2-.1-1.8-.2-.6 0-1.2-.1-1.8-.1-.5 0-.8.3-.9.8v.1c-.1 1.5.1 3 .7 4.5.6 1.4 1.4 2.7 2.6 3.8 1.9 1.9 4.7 3 7.3 2.8.5.8 1 1.6 1.6 2.3 1.6 2.1 2.7 4.7 3 7.4 0 .4.1.8.1 1.2-3.5-.1-7.6-.2-12.5-.4-.5 0-.9 0-1.3-.2-1.1-.2-1.8-.7-2.4-1.4-.5-.7-.9-1.5-.9-2.4s0-1.9 0-2.9l.3-11.7.1-10.9c13.6.1 28 0 38.1 0l.1 10.9c0 .1.2 14.4.2 14.7-.1 2-1.7 3.9-4.4 3.9z"></path></g></svg>