<svg width="184" height="25" viewBox="0 0 184 25" fill="none" xmlns="http://www.w3.org/2000/svg">
<path d="M131.6 3.83179C132.113 3.83179 132.542 3.88074 132.887 3.97865C133.239 4.07656 133.501 4.23782 133.674 4.46244C133.852 4.68705 133.941 4.98654 133.941 5.3609C133.941 5.60279 133.895 5.81877 133.803 6.00883C133.717 6.19313 133.584 6.34863 133.406 6.47533C133.233 6.59628 133.02 6.67979 132.767 6.72587V6.76906C133.026 6.80938 133.259 6.88425 133.466 6.99368C133.679 7.10311 133.846 7.25861 133.967 7.46019C134.088 7.66176 134.149 7.92381 134.149 8.24634C134.149 8.6207 134.062 8.94034 133.89 9.20527C133.717 9.46444 133.469 9.66314 133.147 9.80137C132.83 9.93383 132.45 10.0001 132.006 10.0001H129.838V3.83179H131.6ZM131.756 6.45806C132.286 6.45806 132.648 6.37455 132.844 6.20752C133.04 6.03474 133.138 5.78133 133.138 5.44729C133.138 5.10749 133.017 4.86559 132.775 4.72161C132.539 4.57187 132.159 4.49699 131.635 4.49699H130.615V6.45806H131.756ZM130.615 7.10598V9.3435H131.859C132.407 9.3435 132.787 9.23695 133 9.02385C133.213 8.81076 133.319 8.53143 133.319 8.18587C133.319 7.96701 133.27 7.77695 133.173 7.61569C133.08 7.45443 132.922 7.3306 132.697 7.24421C132.479 7.15206 132.179 7.10598 131.799 7.10598H130.615Z" fill="#393939"/>
<path d="M139.266 5.36954V10.0001H138.506V6.01747H136.113V10.0001H135.353V5.36954H139.266Z" fill="#393939"/>
<path d="M142.532 5.28315C142.93 5.28315 143.269 5.36954 143.552 5.54232C143.84 5.7151 144.058 5.95987 144.208 6.27664C144.364 6.58764 144.441 6.95336 144.441 7.3738V7.83166H141.271C141.282 8.35577 141.415 8.75604 141.668 9.03249C141.928 9.30318 142.287 9.43853 142.748 9.43853C143.042 9.43853 143.301 9.41261 143.526 9.36078C143.756 9.30318 143.992 9.22255 144.234 9.11888V9.78409C143.998 9.88776 143.765 9.96263 143.534 10.0087C143.304 10.0605 143.03 10.0865 142.714 10.0865C142.276 10.0865 141.887 9.99719 141.547 9.81865C141.213 9.6401 140.951 9.37517 140.761 9.02385C140.577 8.66677 140.485 8.23194 140.485 7.71936C140.485 7.21253 140.568 6.7777 140.735 6.41486C140.908 6.05202 141.147 5.77269 141.452 5.57687C141.763 5.38106 142.123 5.28315 142.532 5.28315ZM142.524 5.90516C142.161 5.90516 141.873 6.02322 141.66 6.25936C141.452 6.48973 141.329 6.81226 141.288 7.22693H143.647C143.647 6.962 143.606 6.73163 143.526 6.53581C143.445 6.33999 143.321 6.18737 143.154 6.07794C142.993 5.96275 142.783 5.90516 142.524 5.90516Z" fill="#393939"/>
<path d="M146.285 7.05415C146.285 7.32484 146.36 7.52642 146.51 7.65888C146.666 7.78559 146.887 7.84894 147.175 7.84894C147.463 7.84894 147.725 7.80575 147.961 7.71936C148.198 7.62721 148.44 7.50626 148.687 7.35652V5.36954H149.447V10.0001H148.687V7.93533C148.428 8.10236 148.172 8.23482 147.918 8.33273C147.671 8.42488 147.371 8.47095 147.02 8.47095C146.548 8.47095 146.179 8.34713 145.914 8.09947C145.655 7.85182 145.525 7.52066 145.525 7.10598V5.36954H146.285V7.05415Z" fill="#393939"/>
<path d="M152.672 5.29179C153.237 5.29179 153.654 5.41561 153.925 5.66326C154.196 5.91092 154.331 6.30543 154.331 6.84681V10.0001H153.778L153.631 9.3435H153.597C153.464 9.51052 153.326 9.65162 153.182 9.76681C153.044 9.87624 152.882 9.95687 152.698 10.0087C152.52 10.0605 152.301 10.0865 152.042 10.0865C151.765 10.0865 151.515 10.0375 151.29 9.93959C151.071 9.84168 150.898 9.69194 150.772 9.49036C150.645 9.28302 150.582 9.02385 150.582 8.71285C150.582 8.2521 150.763 7.8979 151.126 7.65024C151.489 7.39683 152.047 7.25861 152.802 7.23557L153.588 7.20965V6.9332C153.588 6.54733 153.504 6.27952 153.337 6.12977C153.17 5.98003 152.934 5.90516 152.629 5.90516C152.387 5.90516 152.157 5.94259 151.938 6.01747C151.719 6.08658 151.515 6.16721 151.324 6.25936L151.091 5.68918C151.293 5.57975 151.532 5.4876 151.808 5.41273C152.085 5.3321 152.373 5.29179 152.672 5.29179ZM152.897 7.76255C152.321 7.78559 151.921 7.87774 151.696 8.039C151.477 8.20026 151.368 8.42776 151.368 8.72149C151.368 8.98066 151.445 9.17072 151.601 9.29166C151.762 9.41261 151.967 9.47308 152.214 9.47308C152.606 9.47308 152.931 9.36654 153.191 9.15344C153.45 8.93458 153.579 8.60054 153.579 8.15131V7.73664L152.897 7.76255Z" fill="#393939"/>
<path d="M158.957 6.00883H157.446V10.0001H156.694V6.00883H155.2V5.36954H158.957V6.00883Z" fill="#393939"/>
<path d="M163.133 10.0001H162.364V6.00019H160.999C160.941 6.73163 160.869 7.35652 160.783 7.87486C160.697 8.38744 160.587 8.805 160.455 9.12752C160.322 9.45005 160.164 9.68618 159.98 9.83592C159.795 9.98567 159.579 10.0605 159.332 10.0605C159.257 10.0605 159.182 10.0548 159.107 10.0433C159.038 10.0375 158.98 10.0231 158.934 10.0001V9.42989C158.969 9.44141 159.006 9.45005 159.047 9.4558C159.087 9.46156 159.127 9.46444 159.168 9.46444C159.294 9.46444 159.409 9.41261 159.513 9.30894C159.617 9.20527 159.709 9.04689 159.79 8.83379C159.876 8.6207 159.954 8.35289 160.023 8.03036C160.092 7.70208 160.152 7.3162 160.204 6.87273C160.256 6.42926 160.302 5.9282 160.342 5.36954H163.133V10.0001Z" fill="#393939"/>
<path d="M166.391 5.28315C166.788 5.28315 167.128 5.36954 167.41 5.54232C167.698 5.7151 167.917 5.95987 168.067 6.27664C168.222 6.58764 168.3 6.95336 168.3 7.3738V7.83166H165.13C165.141 8.35577 165.274 8.75604 165.527 9.03249C165.786 9.30318 166.146 9.43853 166.607 9.43853C166.901 9.43853 167.16 9.41261 167.384 9.36078C167.615 9.30318 167.851 9.22255 168.093 9.11888V9.78409C167.857 9.88776 167.623 9.96263 167.393 10.0087C167.163 10.0605 166.889 10.0865 166.572 10.0865C166.135 10.0865 165.746 9.99719 165.406 9.81865C165.072 9.6401 164.81 9.37517 164.62 9.02385C164.436 8.66677 164.343 8.23194 164.343 7.71936C164.343 7.21253 164.427 6.7777 164.594 6.41486C164.767 6.05202 165.006 5.77269 165.311 5.57687C165.622 5.38106 165.982 5.28315 166.391 5.28315ZM166.382 5.90516C166.019 5.90516 165.731 6.02322 165.518 6.25936C165.311 6.48973 165.187 6.81226 165.147 7.22693H167.505C167.505 6.962 167.465 6.73163 167.384 6.53581C167.304 6.33999 167.18 6.18737 167.013 6.07794C166.852 5.96275 166.641 5.90516 166.382 5.90516Z" fill="#393939"/>
<path d="M170.239 5.36954V7.29604H172.753V5.36954H173.513V10.0001H172.753V7.93533H170.239V10.0001H169.479V5.36954H170.239Z" fill="#393939"/>
<path d="M175.697 8.1945C175.697 8.24634 175.694 8.32121 175.688 8.41912C175.688 8.51127 175.685 8.61206 175.679 8.72149C175.674 8.82515 175.668 8.92594 175.662 9.02385C175.656 9.116 175.651 9.19087 175.645 9.24847L178.124 5.36954H179.057V10.0001H178.349V7.27013C178.349 7.17798 178.349 7.05703 178.349 6.90729C178.355 6.75754 178.36 6.61068 178.366 6.4667C178.372 6.31695 178.378 6.20464 178.383 6.12977L175.921 10.0001H174.98V5.36954H175.697V8.1945Z" fill="#393939"/>
<path d="M180.816 10.0001H179.935L181.256 8.05628C181.078 8.0102 180.905 7.93821 180.738 7.8403C180.571 7.73664 180.436 7.59553 180.332 7.41699C180.228 7.23269 180.177 7.0052 180.177 6.73451C180.177 6.29104 180.326 5.95411 180.626 5.72374C180.925 5.4876 181.323 5.36954 181.818 5.36954H183.891V10.0001H183.131V8.15995H182.008L180.816 10.0001ZM180.911 6.74315C180.911 7.00808 181.009 7.20677 181.205 7.33924C181.406 7.46595 181.686 7.5293 182.043 7.5293H183.131V6.00019H181.896C181.544 6.00019 181.291 6.0693 181.136 6.20752C180.986 6.34575 180.911 6.52429 180.911 6.74315Z" fill="#393939"/>
<path d="M133.173 15.3695V19.3608H133.846V21.6069H133.112V20.0001H129.89V21.6069H129.164V19.3608H129.536C129.8 18.9922 130.019 18.5919 130.192 18.1599C130.371 17.7222 130.503 17.2672 130.59 16.795C130.682 16.317 130.731 15.8418 130.736 15.3695H133.173ZM131.41 15.9656C131.387 16.3573 131.327 16.7633 131.229 17.1837C131.131 17.5984 131.004 17.9958 130.849 18.3759C130.699 18.756 130.523 19.0843 130.322 19.3608H132.438V15.9656H131.41Z" fill="#393939"/>
<path d="M138.279 20.0001H137.51V16.0002H136.145C136.087 16.7316 136.015 17.3565 135.929 17.8749C135.843 18.3874 135.733 18.805 135.601 19.1275C135.468 19.45 135.31 19.6862 135.125 19.8359C134.941 19.9857 134.725 20.0605 134.478 20.0605C134.403 20.0605 134.328 20.0548 134.253 20.0433C134.184 20.0375 134.126 20.0231 134.08 20.0001V19.4299C134.115 19.4414 134.152 19.45 134.192 19.4558C134.233 19.4616 134.273 19.4644 134.313 19.4644C134.44 19.4644 134.555 19.4126 134.659 19.3089C134.763 19.2053 134.855 19.0469 134.935 18.8338C135.022 18.6207 135.1 18.3529 135.169 18.0304C135.238 17.7021 135.298 17.3162 135.35 16.8727C135.402 16.4293 135.448 15.9282 135.488 15.3695H138.279V20.0001Z" fill="#393939"/>
<path d="M140.034 20.0001H139.152L140.474 18.0563C140.296 18.0102 140.123 17.9382 139.956 17.8403C139.789 17.7366 139.653 17.5955 139.55 17.417C139.446 17.2327 139.394 17.0052 139.394 16.7345C139.394 16.291 139.544 15.9541 139.843 15.7237C140.143 15.4876 140.54 15.3695 141.036 15.3695H143.109V20.0001H142.349V18.1599H141.226L140.034 20.0001ZM140.129 16.7431C140.129 17.0081 140.226 17.2068 140.422 17.3392C140.624 17.4659 140.903 17.5293 141.26 17.5293H142.349V16.0002H141.113C140.762 16.0002 140.509 16.0693 140.353 16.2075C140.203 16.3457 140.129 16.5243 140.129 16.7431Z" fill="#393939"/>
<path d="M149.599 15.3695H150.428L148.45 17.5984L150.593 20.0001H149.711L147.621 17.6502V20.0001H146.86V15.3695H147.621V17.6157L149.599 15.3695Z" fill="#393939"/>
<path d="M153.187 15.2918C153.751 15.2918 154.169 15.4156 154.439 15.6633C154.71 15.9109 154.846 16.3054 154.846 16.8468V20.0001H154.293L154.146 19.3435H154.111C153.979 19.5105 153.841 19.6516 153.697 19.7668C153.558 19.8762 153.397 19.9569 153.213 20.0087C153.034 20.0605 152.815 20.0865 152.556 20.0865C152.28 20.0865 152.029 20.0375 151.805 19.9396C151.586 19.8417 151.413 19.6919 151.286 19.4904C151.16 19.283 151.096 19.0239 151.096 18.7128C151.096 18.2521 151.278 17.8979 151.64 17.6502C152.003 17.3968 152.562 17.2586 153.316 17.2356L154.103 17.2097V16.9332C154.103 16.5473 154.019 16.2795 153.852 16.1298C153.685 15.98 153.449 15.9052 153.144 15.9052C152.902 15.9052 152.671 15.9426 152.452 16.0175C152.234 16.0866 152.029 16.1672 151.839 16.2594L151.606 15.6892C151.807 15.5798 152.046 15.4876 152.323 15.4127C152.599 15.3321 152.887 15.2918 153.187 15.2918ZM153.411 17.7626C152.835 17.7856 152.435 17.8777 152.211 18.039C151.992 18.2003 151.882 18.4278 151.882 18.7215C151.882 18.9807 151.96 19.1707 152.116 19.2917C152.277 19.4126 152.481 19.4731 152.729 19.4731C153.121 19.4731 153.446 19.3665 153.705 19.1534C153.964 18.9346 154.094 18.6005 154.094 18.1513V17.7366L153.411 17.7626Z" fill="#393939"/>
<path d="M161.831 15.3695L159.921 17.6157L161.995 20.0001H161.131L159.127 17.6502V20.0001H158.418V17.6502L156.414 20.0001H155.55L157.623 17.6157L155.714 15.3695H156.543L158.418 17.6157V15.3695H159.127V17.6157L161.01 15.3695H161.831Z" fill="#393939"/>
<path d="M166.193 15.3695V19.3608H166.867V21.6069H166.133V20.0001H162.91V21.6069H162.185V19.3608H162.556C162.821 18.9922 163.04 18.5919 163.213 18.1599C163.391 17.7222 163.524 17.2672 163.61 16.795C163.702 16.317 163.751 15.8418 163.757 15.3695H166.193ZM164.431 15.9656C164.408 16.3573 164.347 16.7633 164.25 17.1837C164.152 17.5984 164.025 17.9958 163.869 18.3759C163.72 18.756 163.544 19.0843 163.342 19.3608H165.459V15.9656H164.431Z" fill="#393939"/>
<path d="M171.801 17.6762C171.801 18.062 171.749 18.4047 171.645 18.7042C171.547 18.9979 171.403 19.2485 171.213 19.4558C171.029 19.6631 170.801 19.8215 170.531 19.931C170.266 20.0346 169.969 20.0865 169.641 20.0865C169.336 20.0865 169.053 20.0346 168.794 19.931C168.535 19.8215 168.31 19.6631 168.12 19.4558C167.93 19.2485 167.78 18.9979 167.671 18.7042C167.567 18.4047 167.516 18.062 167.516 17.6762C167.516 17.1636 167.602 16.7316 167.775 16.3803C167.947 16.0232 168.195 15.7525 168.518 15.5682C168.84 15.3782 169.223 15.2831 169.667 15.2831C170.087 15.2831 170.456 15.3782 170.772 15.5682C171.095 15.7525 171.346 16.0232 171.524 16.3803C171.708 16.7316 171.801 17.1636 171.801 17.6762ZM168.302 17.6762C168.302 18.039 168.348 18.3558 168.44 18.6265C168.538 18.8914 168.688 19.0958 168.889 19.2398C169.091 19.3838 169.347 19.4558 169.658 19.4558C169.969 19.4558 170.225 19.3838 170.427 19.2398C170.628 19.0958 170.775 18.8914 170.867 18.6265C170.965 18.3558 171.014 18.039 171.014 17.6762C171.014 17.3076 170.965 16.9937 170.867 16.7345C170.77 16.4753 170.62 16.2766 170.418 16.1384C170.222 15.9944 169.966 15.9224 169.649 15.9224C169.177 15.9224 168.834 16.0779 168.621 16.3889C168.408 16.7 168.302 17.129 168.302 17.6762Z" fill="#393939"/>
<path d="M175.83 15.3695V16.0088H173.766V20.0001H173.005V15.3695H175.83Z" fill="#393939"/>
<path d="M180.684 17.6762C180.684 18.062 180.632 18.4047 180.529 18.7042C180.431 18.9979 180.287 19.2485 180.097 19.4558C179.912 19.6631 179.685 19.8215 179.414 19.931C179.149 20.0346 178.853 20.0865 178.524 20.0865C178.219 20.0865 177.937 20.0346 177.678 19.931C177.419 19.8215 177.194 19.6631 177.004 19.4558C176.814 19.2485 176.664 18.9979 176.555 18.7042C176.451 18.4047 176.399 18.062 176.399 17.6762C176.399 17.1636 176.486 16.7316 176.658 16.3803C176.831 16.0232 177.079 15.7525 177.401 15.5682C177.724 15.3782 178.107 15.2831 178.55 15.2831C178.971 15.2831 179.339 15.3782 179.656 15.5682C179.979 15.7525 180.229 16.0232 180.408 16.3803C180.592 16.7316 180.684 17.1636 180.684 17.6762ZM177.185 17.6762C177.185 18.039 177.231 18.3558 177.324 18.6265C177.422 18.8914 177.571 19.0958 177.773 19.2398C177.974 19.3838 178.231 19.4558 178.542 19.4558C178.853 19.4558 179.109 19.3838 179.311 19.2398C179.512 19.0958 179.659 18.8914 179.751 18.6265C179.849 18.3558 179.898 18.039 179.898 17.6762C179.898 17.3076 179.849 16.9937 179.751 16.7345C179.653 16.4753 179.504 16.2766 179.302 16.1384C179.106 15.9944 178.85 15.9224 178.533 15.9224C178.061 15.9224 177.718 16.0779 177.505 16.3889C177.292 16.7 177.185 17.129 177.185 17.6762Z" fill="#393939"/>
<path d="M2.47945 22.6554V11.5692H0V7.92167H2.47945V5.99739C2.47945 4.65709 2.86386 3.604 3.63268 2.83812C4.4015 2.07224 5.45863 1.68929 6.80407 1.68929H11.3017V5.33681H7.78432C7.55367 5.33681 7.35186 5.42298 7.17887 5.5953C7.02511 5.74848 6.94822 5.93995 6.94822 6.16971V7.92167H10.6674V11.5692H6.94822V22.6554H2.47945Z" fill="url(#paint0_linear_1001_2242)"/>
<path d="M20.3437 22.6554C18.6716 22.6554 17.2012 22.349 15.9326 21.7363C14.6641 21.1044 13.6742 20.2428 12.9631 19.1514C12.2711 18.0409 11.9251 16.7581 11.9251 15.3029C11.9251 13.6945 12.2615 12.3159 12.9342 11.1671C13.6069 10.0183 14.5007 9.13751 15.6155 8.5248C16.7495 7.89295 17.9988 7.57702 19.3635 7.57702C20.9204 7.57702 22.2177 7.90252 23.2556 8.55352C24.3128 9.20452 25.1104 10.0949 25.6486 11.2245C26.1868 12.3351 26.4559 13.6084 26.4559 15.0444C26.4559 15.2933 26.4366 15.5901 26.3982 15.9347C26.379 16.2602 26.3502 16.5187 26.3117 16.7102H16.6246C16.7399 17.208 16.9609 17.6292 17.2877 17.9739C17.6144 18.3185 18.0277 18.577 18.5274 18.7493C19.0271 18.9025 19.5845 18.9791 20.1996 18.9791H24.726V22.6554H20.3437ZM16.5092 13.9243H22.1312C22.0928 13.6179 22.0351 13.3211 21.9583 13.0339C21.8814 12.7467 21.7564 12.4978 21.5835 12.2872C21.4297 12.0574 21.2471 11.866 21.0357 11.7128C20.8243 11.5405 20.5744 11.4064 20.2861 11.3107C20.017 11.215 19.7095 11.1671 19.3635 11.1671C18.9214 11.1671 18.5274 11.2437 18.1814 11.3969C17.8355 11.55 17.5471 11.7607 17.3165 12.0287C17.0859 12.2776 16.9033 12.5744 16.7687 12.9191C16.6534 13.2446 16.5669 13.5796 16.5092 13.9243Z" fill="url(#paint1_linear_1001_2242)"/>
<path d="M36.7863 22.6554C35.1141 22.6554 33.6437 22.349 32.3752 21.7363C31.1066 21.1044 30.1168 20.2428 29.4056 19.1514C28.7137 18.0409 28.3677 16.7581 28.3677 15.3029C28.3677 13.6945 28.7041 12.3159 29.3768 11.1671C30.0495 10.0183 30.9433 9.13751 32.0581 8.5248C33.1921 7.89295 34.4414 7.57702 35.8061 7.57702C37.3629 7.57702 38.6603 7.90252 39.6982 8.55352C40.7553 9.20452 41.553 10.0949 42.0912 11.2245C42.6294 12.3351 42.8984 13.6084 42.8984 15.0444C42.8984 15.2933 42.8792 15.5901 42.8408 15.9347C42.8216 16.2602 42.7927 16.5187 42.7543 16.7102H33.0671C33.1825 17.208 33.4035 17.6292 33.7302 17.9739C34.057 18.3185 34.4702 18.577 34.97 18.7493C35.4697 18.9025 36.0271 18.9791 36.6422 18.9791H41.1686V22.6554H36.7863ZM32.9518 13.9243H38.5738C38.5354 13.6179 38.4777 13.3211 38.4008 13.0339C38.324 12.7467 38.199 12.4978 38.026 12.2872C37.8723 12.0574 37.6897 11.866 37.4782 11.7128C37.2668 11.5405 37.017 11.4064 36.7286 11.3107C36.4596 11.215 36.152 11.1671 35.8061 11.1671C35.364 11.1671 34.97 11.2437 34.624 11.3969C34.278 11.55 33.9897 11.7607 33.7591 12.0287C33.5284 12.2776 33.3458 12.5744 33.2113 12.9191C33.096 13.2446 33.0095 13.5796 32.9518 13.9243Z" fill="url(#paint2_linear_1001_2242)"/>
<path d="M45.5022 22.6554V1.68929H49.971V22.6554H45.5022Z" fill="url(#paint3_linear_1001_2242)"/>
<path d="M53.273 22.6554V7.92167H57.7706V22.6554H53.273ZM55.5218 6.25587C54.8107 6.25587 54.1956 5.99739 53.6767 5.48042C53.1577 4.96345 52.8982 4.35074 52.8982 3.6423C52.8982 2.93385 53.1577 2.32115 53.6767 1.80418C54.1956 1.26806 54.8107 1 55.5218 1C56.233 1 56.848 1.26806 57.367 1.80418C57.886 2.32115 58.1454 2.93385 58.1454 3.6423C58.1454 4.35074 57.886 4.96345 57.367 5.48042C56.848 5.99739 56.233 6.25587 55.5218 6.25587Z" fill="url(#paint4_linear_1001_2242)"/>
<path d="M62.1682 22.6554V11.5692H59.6888V7.92167H62.1682V5.99739C62.1682 4.65709 62.5526 3.604 63.3215 2.83812C64.0903 2.07224 65.1474 1.68929 66.4929 1.68929H70.9905V5.33681H67.4731C67.2425 5.33681 67.0406 5.42298 66.8677 5.5953C66.7139 5.74848 66.637 5.93995 66.637 6.16971V7.92167H70.3562V11.5692H66.637V22.6554H62.1682Z" fill="url(#paint5_linear_1001_2242)"/>
<path d="M79.6866 23C78.1681 23 76.8515 22.7128 75.7367 22.1384C74.6412 21.5448 73.7954 20.7502 73.1996 19.7546C72.6038 18.7398 72.3059 17.6197 72.3059 16.3943V7.92167H76.7746V16.2794C76.7746 16.7963 76.8996 17.275 77.1494 17.7154C77.3993 18.1366 77.7357 18.4813 78.1585 18.7493C78.6006 18.9983 79.1003 19.1227 79.6577 19.1227C80.1959 19.1227 80.6764 18.9983 81.0993 18.7493C81.5413 18.4813 81.8873 18.1366 82.1372 17.7154C82.387 17.275 82.512 16.7963 82.512 16.2794V7.92167H86.9807V16.3943C86.9807 17.6197 86.6924 18.7398 86.1158 19.7546C85.5392 20.7502 84.7031 21.5448 83.6075 22.1384C82.5312 22.7128 81.2242 23 79.6866 23Z" fill="url(#paint6_linear_1001_2242)"/>
<path d="M90.3251 22.6554V14.1828C90.3251 12.9574 90.623 11.8468 91.2189 10.8512C91.8147 9.85553 92.6604 9.06092 93.756 8.46736C94.8708 7.8738 96.1874 7.57702 97.7058 7.57702C99.2435 7.57702 100.55 7.8738 101.627 8.46736C102.722 9.06092 103.558 9.85553 104.135 10.8512C104.712 11.8468 105 12.9574 105 14.1828V22.6554H100.531V14.2977C100.531 13.7807 100.406 13.3116 100.156 12.8903C99.9066 12.45 99.5606 12.1053 99.1185 11.8564C98.6957 11.5883 98.2151 11.4543 97.677 11.4543C97.1196 11.4543 96.6198 11.5883 96.1778 11.8564C95.7549 12.1053 95.4186 12.45 95.1687 12.8903C94.9188 13.3116 94.7939 13.7807 94.7939 14.2977V22.6554H90.3251Z" fill="url(#paint7_linear_1001_2242)"/>
<line x1="117.25" x2="117.25" y2="25" stroke="#A7A7A7" stroke-width="0.5"/>
<defs>
<linearGradient id="paint0_linear_1001_2242" x1="119.318" y1="-2.7931" x2="1.10064" y2="53.9049" gradientUnits="userSpaceOnUse">
<stop stop-color="#0829B0"/>
<stop offset="1" stop-color="#0085FF"/>
</linearGradient>
<linearGradient id="paint1_linear_1001_2242" x1="119.318" y1="-2.7931" x2="1.10064" y2="53.9049" gradientUnits="userSpaceOnUse">
<stop stop-color="#0829B0"/>
<stop offset="1" stop-color="#0085FF"/>
</linearGradient>
<linearGradient id="paint2_linear_1001_2242" x1="119.318" y1="-2.7931" x2="1.10064" y2="53.9049" gradientUnits="userSpaceOnUse">
<stop stop-color="#0829B0"/>
<stop offset="1" stop-color="#0085FF"/>
</linearGradient>
<linearGradient id="paint3_linear_1001_2242" x1="119.318" y1="-2.7931" x2="1.10064" y2="53.9049" gradientUnits="userSpaceOnUse">
<stop stop-color="#0829B0"/>
<stop offset="1" stop-color="#0085FF"/>
</linearGradient>
<linearGradient id="paint4_linear_1001_2242" x1="119.318" y1="-2.7931" x2="1.10064" y2="53.9049" gradientUnits="userSpaceOnUse">
<stop stop-color="#0829B0"/>
<stop offset="1" stop-color="#0085FF"/>
</linearGradient>
<linearGradient id="paint5_linear_1001_2242" x1="119.318" y1="-2.7931" x2="1.10064" y2="53.9049" gradientUnits="userSpaceOnUse">
<stop stop-color="#0829B0"/>
<stop offset="1" stop-color="#0085FF"/>
</linearGradient>
<linearGradient id="paint6_linear_1001_2242" x1="119.318" y1="-2.7931" x2="1.10064" y2="53.9049" gradientUnits="userSpaceOnUse">
<stop stop-color="#0829B0"/>
<stop offset="1" stop-color="#0085FF"/>
</linearGradient>
<linearGradient id="paint7_linear_1001_2242" x1="119.318" y1="-2.7931" x2="1.10064" y2="53.9049" gradientUnits="userSpaceOnUse">
<stop stop-color="#0829B0"/>
<stop offset="1" stop-color="#0085FF"/>
</linearGradient>
</defs>
</svg>
